<?xml version="1.0" encoding="UTF-8"?>
<!DOCTYPE svg PUBLIC "-//W3C//DTD SVG 1.1//EN" "http://www.w3.org/Graphics/SVG/1.1/DTD/svg11.dtd">
<!-- Creator: CorelDRAW -->
<svg xmlns="http://www.w3.org/2000/svg" xml:space="preserve" width="210mm" height="297mm" version="1.1" style="shape-rendering:geometricPrecision; text-rendering:geometricPrecision; image-rendering:optimizeQuality; fill-rule:evenodd; clip-rule:evenodd"
viewBox="0 0 21000 29700"
 xmlns:xlink="http://www.w3.org/1999/xlink"
 xmlns:xodm="http://www.corel.com/coreldraw/odm/2003">
 <defs>
  <style type="text/css">
   <![CDATA[
    .fil0 {fill:#FEFEFE}
    .fil1 {fill:#FEFEFE;fill-rule:nonzero}
   ]]>
  </style>
 </defs>
 <g id="Camada_x0020_1">
  <metadata id="CorelCorpID_0Corel-Layer"/>
  <path class="fil0" d="M8651.35 8568.22l-172.62 281.91c-36.09,89.73 88.12,218.76 130.29,308 -17.18,64.16 -432.58,780.71 -472.11,821.46l-941.22 2.19c-54.81,-114.03 -459.64,-775.89 -456.34,-820.21 2.43,-32.63 202.76,-366.57 231.78,-414.89 285.38,-474.87 130.96,-398.41 560.58,-399.18 50.86,-97.22 150.83,-225.93 183.66,-337.28 -173.41,-0.16 -349.17,-2.29 -522.36,0.91 -209.86,3.87 -224.79,64.99 -305.62,206.28 -127.95,223.6 -253.54,442.18 -382.43,663 -206.14,353.18 -163.04,282.72 74.35,703.59l386.62 659.43c99.1,108.6 263.86,77.41 433.61,76.36 171.36,-1.05 343.03,0.16 514.44,0.2 146.23,0.02 359.17,32.27 449.67,-60.45 52.84,-54.12 325.79,-546.44 389.78,-656.87 298.39,-514.92 280.26,-371.41 6.36,-861.93 -18.29,-32.77 -34.64,-63.05 -48.9,-88.3l-59.54 -84.22z"/>
  <path class="fil0" d="M5633.29 9850.01l765.99 -1.58c-10.58,-60.92 -182.95,-359.76 -217.24,-396l-720.24 -1.96 -152.97 -258.58c-71.09,-108.74 -103.28,-203.53 -175.66,-305.24 -39.82,-55.92 -321.08,-536.84 -325.13,-587.25 -5.25,-65.54 166.4,-326.83 225.7,-445.72 64.77,-129.89 338.97,-554.91 420.06,-725.12l189.43 -0.69c39.37,-52.98 209.65,-333.29 208.23,-414.57 -186.92,50.76 -478.75,-47.59 -633.57,74.58 -75.53,59.58 -347.92,552.29 -416.31,683.09l-364.41 627.43c-139.93,200.29 -13.93,350.51 52.66,489.96l342.07 582.91c413.39,705.05 309.67,678.74 801.39,678.74z"/>
  <path class="fil0" d="M6086.52 9081.1c-52.58,-190.56 -560.11,-468.97 121.91,-1250.9 422.14,-483.99 201.46,-742.43 -172.22,-1199.45 10.8,135.19 148.64,210.68 -117.43,703.06 -244.2,451.92 -563.23,758.78 -481.36,1181.17 21.69,111.84 20.86,89.56 70.34,166.72 110.32,172.08 350.46,380 578.76,399.4z"/>
  <path class="fil0" d="M5847.83 10529.68c-118.99,40.48 -192.75,99.91 -216.37,236.38 -19.46,112.46 -6.82,326.81 -7.04,450.05 -0.27,152.31 14.8,278.99 101.61,352.78 82.69,70.26 238.67,101 372.78,58.51 272.11,-86.24 217.67,-397.36 218.09,-686.03 0.25,-168.25 -3.28,-262.95 -108.09,-352.49 -87.01,-74.35 -229.71,-103.86 -360.98,-59.2zm261.72 669.07c0.24,-277.39 49.66,-518.77 -166.87,-486.83 -147.57,21.77 -112.63,205.03 -112.55,349.64 0.08,122.23 -34.25,334.04 83.12,375.13 181.13,63.44 196.2,-99.36 196.3,-237.94z"/>
  <path class="fil0" d="M7862.53 9412.19c48.33,-102.5 27.99,-276.1 118.79,-426.62 132.88,-220.3 464.78,-346.01 538.56,-593.49 127.09,-426.22 -651.7,-604.25 -807.14,84.72 -53.88,238.85 21.35,780.81 149.79,935.39z"/>
  <path class="fil0" d="M6480.98 11632.71l188.38 1.05 10.12 -457.59c127.18,-4.17 80.17,-33.34 175.14,190.91 33.23,78.52 76.62,199.15 116.21,261.15l219.97 5.53 -204.78 -468.02c68.6,-69.94 143.15,-88.63 165.19,-213.59 78.7,-446.03 -258.58,-473.01 -667.6,-429.36l-2.63 1109.92zm197.51 -650.95c75.43,1.29 170.94,10.57 229.49,-15.64 69.13,-66.69 56.65,-171.89 4.72,-238.93 -76.15,-25.18 -153.86,-17.3 -234.43,-14.58l0.22 269.15z"/>
  <path class="fil0" d="M6642.38 7118.15c207.96,7.23 137.62,-27.64 237.09,144.59l314.51 524.16 427.72 -1.23c-1.2,-80.37 -440.33,-824.14 -514.62,-923.69 -135.93,-182.07 -305.2,-130.51 -658.99,-131.12 12.01,90.84 147.4,309.25 194.29,387.29z"/>
  <polygon class="fil0" points="8025.7,11631.39 8639.74,11634.26 8646.99,11444.29 8228.72,11440.22 8227.93,11185.55 8581.47,11177.18 8583.44,10983.05 8227.52,10983.54 8227.89,10714.25 8643.57,10714.41 8644.91,10522.51 8029.6,10520.32 "/>
  <path class="fil0" d="M4227.17 9720.33l411.55 6.4c33.44,-63.3 174.95,-268.51 170.01,-344.27 -4.08,-62.67 -151.76,-283.59 -186.82,-324.04 -78.45,-4.4 -271.75,-14.58 -341.19,-1.26 -90.98,17.44 -109.98,121.51 -153.22,190.45 -57,90.88 -93.57,137.09 -24.27,257.97 46.65,81.34 79.05,127.68 123.94,214.75z"/>
  <polygon class="fil0" points="4907.14,11635.34 5108.68,11635.01 5109.21,11192.54 5460.46,11187.59 5459.49,10997.17 5107.26,10994.03 5110.62,10715.36 5522.01,10712.71 5521.57,10519.25 4907.97,10519.43 "/>
  <path class="fil0" d="M7232.47 10710.04l242.76 2.83 0.66 919.07 189.27 2.75c34.09,-127.5 7.68,-734.53 10.86,-917.42l235.39 -5.31 5.34 -191.94 -679.34 0.5 -4.94 189.52z"/>
  <path class="fil0" d="M7753.23 9786.33c130.1,-504.05 -274.6,-1044.21 -568.6,-774.7 -67.53,61.9 -107.55,163.65 -36.11,259.72 51.32,69 127.86,107.7 229.12,149.08 247.32,101.09 254,130.76 375.59,365.9z"/>
  <path class="fil0" d="M8071.41 7879.24c38.34,-30.89 110.34,-150.65 112.28,-197.37 2.19,-52.5 -73.58,-143.66 -95.73,-205.09l-256.94 -2.23c-55.62,102.36 -133.27,173.62 -66.53,289.49 74.45,129.27 126.74,163.69 306.92,115.2z"/>
  <path class="fil0" d="M4432.94 8669.11l-182.97 -5.72c-47.17,83.81 -102.58,147.27 -23.59,238.61 88.69,102.61 365.53,47.88 206.56,-232.89z"/>
  <path class="fil0" d="M6323.53 8893.96c-15.5,-125.72 -311.16,-349.7 194.35,-781.52 312.89,-267.29 197.19,-451.77 3.1,-776.44 -5.82,86.7 74.5,147.45 -140.24,434.67 -197.1,263.61 -428.05,428.27 -415.69,703.68 3.28,72.92 4.84,58.72 28.99,112.27 53.82,119.4 186.59,273.67 329.49,307.34z"/>
  <path class="fil1" d="M4166.59 12441.85l152.89 -576.62 57.99 0 162.26 576.62 -60.03 0 -46.11 -174.76 -167.83 0 -43.23 174.76 -55.94 0zm114.67 -236.77l135.82 0 -41.56 -159.86c-12.53,-48.58 -21.99,-88.72 -28.58,-120.39 -5.47,37.58 -12.8,74.49 -21.98,111l-43.7 169.25z"/>
  <path id="_1" class="fil1" d="M4883.18 12379.97c24.58,24.43 47.22,42.15 68,53.42l-15.67 53.16c-28.67,-14.9 -57.25,-38.39 -85.73,-70.6 -29.5,23.75 -62.07,35.56 -97.69,35.56 -36,0 -68.65,-12.61 -97.97,-37.71 -29.31,-25.1 -51.86,-60.54 -67.72,-106.04 -15.87,-45.63 -23.75,-96.91 -23.75,-154.08 0,-56.78 7.97,-108.46 23.93,-155.16 15.86,-46.58 38.59,-82.01 68,-106.44 29.41,-24.3 62.35,-36.51 98.71,-36.51 36.75,0 69.86,12.62 99.37,37.85 29.5,25.37 52.04,60.67 67.54,106.17 15.49,45.37 23.19,96.64 23.19,153.68 0,47.52 -5.01,90.07 -15.03,127.92 -9.93,37.85 -25.05,70.73 -45.18,98.78zm-115.78 -97.44c30.34,12.35 55.39,30.74 75.05,55.03 30.9,-40.8 46.39,-102.14 46.39,-184.02 0,-46.57 -5.48,-87.24 -16.42,-122.01 -10.95,-34.89 -26.91,-61.87 -47.97,-81.07 -21.06,-19.19 -44.71,-28.85 -70.87,-28.85 -39.25,0 -71.81,19.46 -97.6,58.25 -25.89,38.92 -38.78,96.91 -38.78,174.08 0,74.77 12.8,132.21 38.32,172.35 25.6,39.99 58.26,59.99 98.06,59.99 18.73,0 36.46,-5.1 53.16,-15.3 -16.52,-15.43 -33.87,-26.44 -52.05,-33.02l12.71 -55.43z"/>
  <path id="_2" class="fil1" d="M5275.61 11865.23l52.89 0 0 333.01c0,57.98 -4.55,104.02 -13.55,138.11 -9.09,33.96 -25.42,61.74 -48.99,83.08 -23.66,21.35 -54.55,32.08 -92.96,32.08 -37.2,0 -67.72,-9.26 -91.38,-27.91 -23.75,-18.66 -40.64,-45.51 -50.75,-80.81 -10.11,-35.3 -15.21,-83.48 -15.21,-144.55l0 -333.01 52.88 0 0 332.87c0,50.07 3.25,87.11 9.65,110.74 6.4,23.75 17.35,42.14 33.03,54.89 15.58,12.89 34.7,19.33 57.24,19.33 38.59,0 66.14,-12.75 82.57,-38.12 16.42,-25.5 24.58,-74.36 24.58,-146.84l0 -332.87z"/>
  <polygon id="_3" class="fil1" points="5417.65,12441.85 5417.65,11865.23 5705.44,11865.23 5705.44,11932.88 5470.53,11932.88 5470.53,12110.05 5690.4,12110.05 5690.4,12177.7 5470.53,12177.7 5470.53,12374.2 5714.9,12374.2 5714.9,12441.85 "/>
  <path id="_4" class="fil1" d="M6071.71 12239.58l52.88 19.33c-11.04,62.68 -30.89,110.33 -59.56,143.21 -28.67,32.88 -63.74,49.39 -105.21,49.39 -42.86,0 -77.74,-12.61 -104.64,-37.98 -26.91,-25.23 -47.32,-61.88 -61.33,-109.79 -14.01,-48.06 -21.06,-99.46 -21.06,-154.49 0,-60 7.89,-112.35 23.75,-157.04 15.87,-44.7 38.41,-78.66 67.63,-101.88 29.22,-23.22 61.42,-34.76 96.49,-34.76 39.89,0 73.38,14.63 100.47,44.02 27.18,29.4 46.11,70.61 56.78,123.76l-51.76 17.71c-9.19,-41.87 -22.64,-72.48 -40.18,-91.54 -17.53,-19.19 -39.62,-28.72 -66.24,-28.72 -30.53,0 -56.13,10.61 -76.63,31.81 -20.51,21.21 -34.98,49.8 -43.23,85.5 -8.35,35.84 -12.53,72.75 -12.53,110.73 0,49 4.92,91.81 14.75,128.32 9.84,36.64 25.14,63.89 45.93,82.01 20.78,18.12 43.23,27.11 67.44,27.11 29.5,0 54.37,-12.35 74.78,-36.91 20.41,-24.7 34.23,-61.2 41.47,-109.79z"/>
  <polygon id="_5" class="fil1" points="6190.92,12441.85 6190.92,11865.23 6478.71,11865.23 6478.71,11932.88 6243.8,11932.88 6243.8,12110.05 6463.68,12110.05 6463.68,12177.7 6243.8,12177.7 6243.8,12374.2 6488.17,12374.2 6488.17,12441.85 "/>
  <path id="_6" class="fil1" d="M6561.09 12441.85l0 -576.62 137.31 0c30.99,0 54.65,2.69 70.97,8.19 22.83,7.65 42.3,21.48 58.45,41.34 21.06,25.77 36.74,58.52 47.13,98.52 10.48,40 15.68,85.77 15.68,137.17 0,43.76 -3.53,82.55 -10.58,116.37 -7.05,33.83 -16.14,61.88 -27.18,84.03 -11.14,22.14 -23.2,39.59 -36.37,52.21 -13.08,12.75 -28.94,22.41 -47.5,28.99 -18.65,6.58 -39.99,9.8 -64.11,9.8l-143.8 0zm52.89 -67.65l84.97 0c26.26,0 46.86,-3.49 61.8,-10.6 14.93,-7.11 26.81,-17.05 35.71,-29.93 12.44,-18.12 22.17,-42.55 29.13,-73.15 6.96,-30.61 10.48,-67.65 10.48,-111.27 0,-60.4 -6.86,-106.84 -20.5,-139.33 -13.63,-32.48 -30.24,-54.22 -49.82,-65.23 -14.1,-7.92 -36.83,-11.81 -68.19,-11.81l-83.58 0 0 441.32z"/>
  <path id="_7" class="fil1" d="M6946.94 12161.19c0,-95.56 17.81,-170.46 53.34,-224.55 35.54,-54.09 81.37,-81.07 137.59,-81.07 36.83,0 69.95,12.75 99.54,38.12 29.51,25.37 52.05,60.8 67.55,106.3 15.49,45.37 23.28,96.91 23.28,154.49 0,58.39 -8.16,110.73 -24.49,156.77 -16.33,46.17 -39.43,81.07 -69.3,104.7 -29.97,23.75 -62.25,35.56 -96.86,35.56 -37.57,0 -71.06,-13.15 -100.66,-39.32 -29.5,-26.18 -51.95,-61.88 -67.17,-107.25 -15.21,-45.23 -22.82,-93.15 -22.82,-143.75zm54.55 1.34c0,69.4 12.89,124.03 38.69,163.89 25.79,39.86 58.17,59.86 97.13,59.86 39.71,0 72.27,-20.13 97.97,-60.4 25.61,-40.26 38.41,-97.44 38.41,-171.53 0,-46.85 -5.47,-87.78 -16.42,-122.68 -10.95,-34.9 -27,-62.01 -48.06,-81.21 -21.15,-19.19 -44.81,-28.85 -71.06,-28.85 -37.3,0 -69.4,18.52 -96.31,55.56 -26.9,37.05 -40.35,98.79 -40.35,185.36z"/>
  <path id="_8" class="fil1" d="M7397.17 12441.85l0 -576.62 176.64 0c35.54,0 62.53,5.24 80.99,15.57 18.46,10.34 33.22,28.59 44.26,54.77 11.04,26.17 16.51,55.16 16.51,86.84 0,40.93 -9.19,75.43 -27.46,103.48 -18.28,28.05 -46.48,45.77 -84.7,53.42 14,9.67 24.58,19.33 31.82,28.73 15.4,20.4 29.97,46.03 43.6,76.77l68.93 157.04 -65.86 0 -52.7 -119.99c-15.31,-34.77 -28.02,-61.21 -37.95,-79.6 -10.01,-18.39 -18.92,-31.14 -26.81,-38.52 -7.79,-7.25 -15.86,-12.35 -24.03,-15.3 -5.93,-1.75 -15.67,-2.68 -29.31,-2.68l-61.05 0 0 256.09 -52.88 0zm52.88 -322.13l113.19 0c24.12,0 42.86,-3.63 56.4,-10.87 13.55,-7.12 23.85,-18.66 30.81,-34.63 7.05,-15.84 10.57,-33.02 10.57,-51.68 0,-27.25 -6.77,-49.79 -20.41,-67.38 -13.64,-17.58 -35.16,-26.31 -64.57,-26.31l-125.99 0 0 190.87z"/>
  <path id="_9" class="fil1" d="M7878.29 12441.85l152.9 -576.62 57.98 0 162.26 576.62 -60.02 0 -46.11 -174.76 -167.83 0 -43.23 174.76 -55.95 0zm114.67 -236.77l135.82 0 -41.56 -159.86c-12.52,-48.58 -21.98,-88.72 -28.57,-120.39 -5.48,37.58 -12.8,74.49 -21.99,111l-43.7 169.25z"/>
  <path id="_10" class="fil1" d="M8603.7 12215.55l0 -67.65 168.66 0 0 213.69c-25.88,29.79 -52.6,52.34 -80.16,67.37 -27.55,15.04 -55.85,22.55 -84.79,22.55 -39.15,0 -74.68,-12.08 -106.69,-36.37 -31.91,-24.16 -56.13,-59.33 -72.36,-105.1 -16.34,-45.9 -24.5,-97.17 -24.5,-153.68 0,-56.1 8.07,-108.45 24.31,-157.17 16.24,-48.59 39.52,-84.7 69.95,-108.19 30.43,-23.62 65.5,-35.43 105.21,-35.43 28.76,0 54.82,6.71 78.11,20.27 23.29,13.55 41.57,32.34 54.74,56.37 13.27,24.16 23.28,55.7 30.15,94.49l-47.59 18.79c-6.03,-29.26 -13.45,-52.34 -22.27,-69.25 -8.91,-16.78 -21.52,-30.2 -38.03,-40.27 -16.43,-10.07 -34.7,-15.17 -54.84,-15.17 -24.02,0 -44.81,5.37 -62.43,15.97 -17.54,10.61 -31.64,24.57 -42.49,42.02 -10.76,17.31 -19.11,36.37 -25.05,57.04 -10.11,35.84 -15.22,74.49 -15.22,116.24 0,51.54 6.13,94.62 18.28,129.39 12.24,34.62 30.06,60.39 53.34,77.17 23.39,16.78 48.15,25.24 74.41,25.24 22.82,0 45.09,-6.45 66.8,-19.2 21.71,-12.88 38.13,-26.44 49.36,-41.07l0 -108.05 -116.9 0z"/>
  <path id="_11" class="fil1" d="M8806.5 12441.85l152.89 -576.62 57.99 0 162.26 576.62 -60.03 0 -46.11 -174.76 -167.83 0 -43.22 174.76 -55.95 0zm114.67 -236.77l135.82 0 -41.56 -159.86c-12.53,-48.58 -21.99,-88.72 -28.58,-120.39 -5.47,37.58 -12.8,74.49 -21.98,111l-43.7 169.25zm25.33 -375.28l35.62 -110.33 64.57 0 -59.56 110.33 -40.63 0z"/>
  <path id="_12" class="fil1" d="M9204.23 12256.62l49.54 -6.44c2.32,28.99 7.79,52.75 16.42,71.41 8.63,18.52 21.99,33.55 40.08,45.1 18.09,11.4 38.5,17.18 61.13,17.18 20.14,0 37.86,-4.3 53.26,-13.02 15.4,-8.73 26.81,-20.67 34.33,-35.84 7.51,-15.17 11.31,-31.68 11.31,-49.39 0,-17.99 -3.61,-33.69 -10.85,-47.25 -7.24,-13.42 -19.2,-24.7 -35.9,-33.96 -10.67,-5.9 -34.33,-15.3 -70.97,-28.05 -36.65,-12.75 -62.26,-24.7 -76.91,-35.97 -19.03,-14.5 -33.13,-32.48 -42.4,-53.82 -9.37,-21.35 -14.01,-45.37 -14.01,-71.81 0,-29.26 5.75,-56.51 17.16,-81.74 11.41,-25.37 28.02,-44.57 50.01,-57.72 21.89,-13.15 46.29,-19.73 73.1,-19.73 29.5,0 55.57,6.85 78.12,20.67 22.54,13.69 39.89,33.96 52.05,60.8 12.15,26.71 18.64,57.05 19.57,90.87l-50.66 5.64c-2.69,-36.38 -11.87,-63.89 -27.55,-82.41 -15.68,-18.66 -38.87,-27.92 -69.48,-27.92 -31.92,0 -55.21,8.45 -69.77,25.37 -14.57,16.91 -21.9,37.31 -21.9,61.2 0,20.67 5.2,37.72 15.5,51.14 10.2,13.29 36.64,27.11 79.5,41.07 42.87,14.09 72.28,26.31 88.23,36.78 23.1,15.43 40.26,34.9 51.31,58.65 11.03,23.63 16.51,50.87 16.51,81.74 0,30.74 -6.03,59.46 -18.19,86.58 -12.15,27.11 -29.5,48.18 -52.23,63.21 -22.73,15.04 -48.24,22.55 -76.72,22.55 -36,0 -66.15,-7.65 -90.45,-22.81 -24.4,-15.17 -43.43,-37.99 -57.25,-68.59 -13.91,-30.47 -21.15,-64.96 -21.89,-103.49z"/>
 </g>
</svg>
